name analog
datacolumns 19
datarows 18
range 0.561 0.5695
endheader
time	ground_force_vx	ground_force_vy	ground_force_vz	ground_force_px	ground_force_py	ground_force_pz	l_ground_force_vx	l_ground_force_vy	l_ground_force_vz	l_ground_force_px	l_ground_force_py	l_ground_force_pz	ground_torque_x	ground_torque_y	ground_torque_z	l_ground_torque_x	l_ground_torque_y	l_ground_torque_z
0.561	-0.0	-0.0	-0.0	-6.42315673828125	40.0167350769043	-326.3717956542969	-5.603573322296143	-29.401302337646484	-283.48199462890625	-0.0	-0.0	-0.0	-0.0	-0.0	-0.0	80716.046875	-23797.603515625	-544.5814208984375
0.5615	-0.0	-0.0	-0.0	-4.73105001449585	39.92174911499024	-324.6296691894531	-4.529321670532227	-29.320274353027344	-280.34881591796875	-0.0	-0.0	-0.0	-0.0	-0.0	-0.0	79990.640625	-23920.1640625	-128.4768524169922
0.562	-0.0	-0.0	-0.0	-3.3066556453704834	39.20565414428711	-324.5607604980469	-3.4597206115722656	-29.494314193725582	-277.894287109375	-0.0	-0.0	-0.0	-0.0	-0.0	-0.0	79330.7734375	-24385.298828125	491.7527770996094
0.5625	-0.0	-0.0	-0.0	-1.5284388065338137	39.39563751220703	-323.2066345214844	-2.129058837890625	-28.80325126647949	-277.154541015625	-0.0	-0.0	-0.0	-0.0	-0.0	-0.0	78769.6953125	-24943.33203125	676.0579223632812
0.5630000000000001	-0.0	-0.0	-0.0	0.2585291266441345	38.59650039672852	-321.7469482421875	-1.244626760482788	-28.262939453125	-273.0049743652344	-0.0	-0.0	-0.0	-0.0	-0.0	-0.0	78334.8828125	-25247.98046875	1061.631103515625
0.5635	-0.0	-0.0	-0.0	1.8734207153320312	38.07093048095703	-318.3485717773437	-0.3521380424499511	-27.476123809814453	-271.3014831542969	-0.0	-0.0	-0.0	-0.0	-0.0	-0.0	77698.015625	-25657.36328125	1381.55322265625
0.5640000000000001	-0.0	-0.0	-0.0	2.8610050678253174	37.76937103271485	-317.9612121582031	0.7928467988967896	-27.02643585205078	-270.5706787109375	-0.0	-0.0	-0.0	-0.0	-0.0	-0.0	77274.4609375	-26063.115234375	1795.78173828125
0.5645	-0.0	-0.0	-0.0	4.530694007873535	36.6516227722168	-317.5213623046875	1.8544842004776	-26.410985946655277	-268.17059326171875	-0.0	-0.0	-0.0	-0.0	-0.0	-0.0	76584.796875	-26699.37109375	2039.5472412109373
0.5650000000000001	-0.0	-0.0	-0.0	5.527847766876221	36.79805755615234	-315.3643493652344	2.918923854827881	-26.069055557250977	-268.1596374511719	-0.0	-0.0	-0.0	-0.0	-0.0	-0.0	76112.265625	-26991.353515625	2280.536376953125
0.5655	-0.0	-0.0	-0.0	5.973829746246338	35.81733703613281	-313.59783935546875	4.249375343322754	-25.978179931640625	-266.6944885253906	-0.0	-0.0	-0.0	-0.0	-0.0	-0.0	76073.9921875	-27439.70703125	2810.609619140625
0.5660000000000001	-0.0	-0.0	-0.0	6.261297225952148	35.0150146484375	-311.15155029296875	5.148177623748779	-25.792871475219727	-263.9121398925781	-0.0	-0.0	-0.0	-0.0	-0.0	-0.0	75621.359375	-27743.544921875	3226.54150390625
0.5665	-0.0	-0.0	-0.0	6.5190629959106445	34.05450439453125	-308.3658752441406	6.2924909591674805	-25.7045841217041	-263.92333984375	-0.0	-0.0	-0.0	-0.0	-0.0	-0.0	75083.9296875	-28308.3828125	3495.305908203125
0.5670000000000001	-0.0	-0.0	-0.0	6.80049991607666	33.50961685180664	-308.25848388671875	7.1794610023498535	-25.963533401489254	-262.5860595703125	-0.0	-0.0	-0.0	-0.0	-0.0	-0.0	74833.171875	-28570.263671875	3878.368896484375
0.5675	-0.0	-0.0	-0.0	7.582893371582031	32.46068572998047	-304.08795166015625	7.803462982177734	-25.701610565185547	-261.50244140625	-0.0	-0.0	-0.0	-0.0	-0.0	-0.0	74287.46875	-28770.8046875	3826.71484375
0.5680000000000001	-0.0	-0.0	-0.0	8.018393516540527	31.83009529113769	-302.6334533691406	8.246947288513184	-25.87196922302246	-259.8184814453125	-0.0	-0.0	-0.0	-0.0	-0.0	-0.0	73781.5390625	-29372.30078125	4034.658447265625
0.5685	-0.0	-0.0	-0.0	8.567766189575195	31.384565353393555	-299.9342956542969	8.354792594909668	-25.181224822998047	-258.73394775390625	-0.0	-0.0	-0.0	-0.0	-0.0	-0.0	73721.2890625	-29769.55078125	4353.748046875
0.5690000000000001	-0.0	-0.0	-0.0	8.578561782836914	31.1884708404541	-299.2144470214844	8.683979988098145	-25.17489242553711	-256.2772827148437	-0.0	-0.0	-0.0	-0.0	-0.0	-0.0	72882.453125	-29822.736328125	4435.36474609375
0.5695	-0.0	-0.0	-0.0	9.281551361083984	31.00641441345215	-298.1562805175781	9.222625732421877	-24.376785278320312	-253.16085815429688	-0.0	-0.0	-0.0	-0.0	-0.0	-0.0	72359.484375	-30147.142578125	4419.20703125
